<?xml version="1.0" standalone="no"?>
<!DOCTYPE svg PUBLIC "-//W3C//DTD SVG 20010904//EN"
 "http://www.w3.org/TR/2001/REC-SVG-20010904/DTD/svg10.dtd">
<svg version="1.0" xmlns="http://www.w3.org/2000/svg"
 width="600.000000pt" height="600.000000pt" viewBox="0 0 600.000000 600.000000"
 preserveAspectRatio="xMidYMid meet">
<metadata>
Created by potrace 1.14, written by Peter Selinger 2001-2017
</metadata>
<g transform="translate(0.000000,600.000000) scale(0.100000,-0.100000)"
fill="#000000" stroke="none">
<path d="M4927 5801 c-45 -40 -83 -77 -511 -495 -164 -160 -342 -334 -396
-386 -54 -52 -234 -228 -401 -391 -167 -163 -347 -339 -400 -390 -53 -52 -236
-230 -405 -395 -170 -166 -354 -345 -409 -399 -55 -53 -230 -224 -388 -378
-159 -155 -335 -327 -392 -382 -348 -339 -724 -706 -890 -870 l-193 -190 -83
-230 c-45 -126 -96 -270 -114 -320 -55 -153 -182 -506 -215 -595 -42 -115 -91
-259 -95 -281 -4 -20 39 -60 58 -54 7 2 334 110 727 240 l715 236 190 186
c401 392 791 772 880 858 51 50 232 226 402 391 169 166 345 337 389 380 45
44 220 214 389 379 169 165 354 345 410 400 115 112 658 641 800 780 382 373
710 692 823 802 l132 128 0 140 c0 77 -4 146 -8 153 -5 7 -123 130 -263 273
-140 144 -293 301 -340 350 -78 81 -90 89 -125 90 -21 1 -86 2 -143 3 l-105 3
-39 -36z"/>
</g>
</svg>
